# xmcd CD database file
#
# Track frame offsets:
#       182
#       54257
#       90240
#       116550
#       149662
#       182977
#       229155
#       241260
#       277202
#       308200
#       320687
#
# Disc length: 4544 seconds
#
# Revision: 10
# Processed by: cddbd v1.5.2PL0 Copyright (c) Steve Scherf et al.
# Submitted via: CDex 1.70beta2
#
DISCID=9e11be0b
DTITLE=Meat Loaf / Bat Out Of Hell 2
DYEAR=1993
DGENRE=Rock
TTITLE0=I'd Do Anything For Love (But I Won't Do That)
TTITLE1=Life Is A Lemon And I Want My Money Back
TTITLE2=Rock And Roll Dreams Come Through
TTITLE3=It Just Won't Quit
TTITLE4=Out Of The Frying Pan (And Into The Fire)
TTITLE5=Objects In The Rear View Mirror May Appear Closer Than They Are
TTITLE6=Wasted Youth
TTITLE7=Everything Louder Than Everything Else
TTITLE8=Good Girls Go To Heaven (Bad Girls Go Everywhere)
TTITLE9=Back Into Hell
TTITLE10=Lost Boys And Golden Girls
EXTD= YEAR: 1993
EXTT0=
EXTT1=
EXTT2=
EXTT3=
EXTT4=
EXTT5=
EXTT6=
EXTT7=
EXTT8=
EXTT9=
EXTT10=
PLAYORDER=
.
